<?xml version="1.0" standalone="no"?>
<svg xmlns="http://www.w3.org/2000/svg" version="1.1" width="592" height="592">
	<!-- Created with https://api.qrserver.com (QR Code API, see goQR.me/api for information) -->
	<title>QR Code</title>
	<desc>https://glowing-space-garbanzo-wvv9769rwx7gcg64r-8000.app.github.dev/app/contacto/?slug=kmoran</desc>
	<rect style="fill:rgb(255, 255, 255);fill-opacity:1" x="0" y="0" width="592" height="592" />
	<g id="elements">
		<path style="fill:rgb(0, 0, 0)" d="M 0,0 l 16,0 0,16 -16,0 z M 16,0 l 16,0 0,16 -16,0 z M 32,0 l 16,0 0,16 -16,0 z M 48,0 l 16,0 0,16 -16,0 z M 64,0 l 16,0 0,16 -16,0 z M 80,0 l 16,0 0,16 -16,0 z M 96,0 l 16,0 0,16 -16,0 z M 144,0 l 16,0 0,16 -16,0 z M 208,0 l 16,0 0,16 -16,0 z M 224,0 l 16,0 0,16 -16,0 z M 240,0 l 16,0 0,16 -16,0 z M 256,0 l 16,0 0,16 -16,0 z M 272,0 l 16,0 0,16 -16,0 z M 336,0 l 16,0 0,16 -16,0 z M 352,0 l 16,0 0,16 -16,0 z M 368,0 l 16,0 0,16 -16,0 z M 384,0 l 16,0 0,16 -16,0 z M 416,0 l 16,0 0,16 -16,0 z M 448,0 l 16,0 0,16 -16,0 z M 480,0 l 16,0 0,16 -16,0 z M 496,0 l 16,0 0,16 -16,0 z M 512,0 l 16,0 0,16 -16,0 z M 528,0 l 16,0 0,16 -16,0 z M 544,0 l 16,0 0,16 -16,0 z M 560,0 l 16,0 0,16 -16,0 z M 576,0 l 16,0 0,16 -16,0 z M 0,16 l 16,0 0,16 -16,0 z M 96,16 l 16,0 0,16 -16,0 z M 128,16 l 16,0 0,16 -16,0 z M 144,16 l 16,0 0,16 -16,0 z M 176,16 l 16,0 0,16 -16,0 z M 192,16 l 16,0 0,16 -16,0 z M 208,16 l 16,0 0,16 -16,0 z M 288,16 l 16,0 0,16 -16,0 z M 320,16 l 16,0 0,16 -16,0 z M 352,16 l 16,0 0,16 -16,0 z M 384,16 l 16,0 0,16 -16,0 z M 400,16 l 16,0 0,16 -16,0 z M 416,16 l 16,0 0,16 -16,0 z M 432,16 l 16,0 0,16 -16,0 z M 448,16 l 16,0 0,16 -16,0 z M 480,16 l 16,0 0,16 -16,0 z M 576,16 l 16,0 0,16 -16,0 z M 0,32 l 16,0 0,16 -16,0 z M 32,32 l 16,0 0,16 -16,0 z M 48,32 l 16,0 0,16 -16,0 z M 64,32 l 16,0 0,16 -16,0 z M 96,32 l 16,0 0,16 -16,0 z M 144,32 l 16,0 0,16 -16,0 z M 160,32 l 16,0 0,16 -16,0 z M 176,32 l 16,0 0,16 -16,0 z M 224,32 l 16,0 0,16 -16,0 z M 240,32 l 16,0 0,16 -16,0 z M 256,32 l 16,0 0,16 -16,0 z M 336,32 l 16,0 0,16 -16,0 z M 352,32 l 16,0 0,16 -16,0 z M 384,32 l 16,0 0,16 -16,0 z M 448,32 l 16,0 0,16 -16,0 z M 480,32 l 16,0 0,16 -16,0 z M 512,32 l 16,0 0,16 -16,0 z M 528,32 l 16,0 0,16 -16,0 z M 544,32 l 16,0 0,16 -16,0 z M 576,32 l 16,0 0,16 -16,0 z M 0,48 l 16,0 0,16 -16,0 z M 32,48 l 16,0 0,16 -16,0 z M 48,48 l 16,0 0,16 -16,0 z M 64,48 l 16,0 0,16 -16,0 z M 96,48 l 16,0 0,16 -16,0 z M 128,48 l 16,0 0,16 -16,0 z M 144,48 l 16,0 0,16 -16,0 z M 176,48 l 16,0 0,16 -16,0 z M 256,48 l 16,0 0,16 -16,0 z M 304,48 l 16,0 0,16 -16,0 z M 320,48 l 16,0 0,16 -16,0 z M 384,48 l 16,0 0,16 -16,0 z M 400,48 l 16,0 0,16 -16,0 z M 416,48 l 16,0 0,16 -16,0 z M 432,48 l 16,0 0,16 -16,0 z M 448,48 l 16,0 0,16 -16,0 z M 480,48 l 16,0 0,16 -16,0 z M 512,48 l 16,0 0,16 -16,0 z M 528,48 l 16,0 0,16 -16,0 z M 544,48 l 16,0 0,16 -16,0 z M 576,48 l 16,0 0,16 -16,0 z M 0,64 l 16,0 0,16 -16,0 z M 32,64 l 16,0 0,16 -16,0 z M 48,64 l 16,0 0,16 -16,0 z M 64,64 l 16,0 0,16 -16,0 z M 96,64 l 16,0 0,16 -16,0 z M 160,64 l 16,0 0,16 -16,0 z M 192,64 l 16,0 0,16 -16,0 z M 208,64 l 16,0 0,16 -16,0 z M 224,64 l 16,0 0,16 -16,0 z M 240,64 l 16,0 0,16 -16,0 z M 256,64 l 16,0 0,16 -16,0 z M 272,64 l 16,0 0,16 -16,0 z M 352,64 l 16,0 0,16 -16,0 z M 368,64 l 16,0 0,16 -16,0 z M 384,64 l 16,0 0,16 -16,0 z M 416,64 l 16,0 0,16 -16,0 z M 448,64 l 16,0 0,16 -16,0 z M 480,64 l 16,0 0,16 -16,0 z M 512,64 l 16,0 0,16 -16,0 z M 528,64 l 16,0 0,16 -16,0 z M 544,64 l 16,0 0,16 -16,0 z M 576,64 l 16,0 0,16 -16,0 z M 0,80 l 16,0 0,16 -16,0 z M 96,80 l 16,0 0,16 -16,0 z M 128,80 l 16,0 0,16 -16,0 z M 160,80 l 16,0 0,16 -16,0 z M 224,80 l 16,0 0,16 -16,0 z M 256,80 l 16,0 0,16 -16,0 z M 304,80 l 16,0 0,16 -16,0 z M 320,80 l 16,0 0,16 -16,0 z M 336,80 l 16,0 0,16 -16,0 z M 352,80 l 16,0 0,16 -16,0 z M 384,80 l 16,0 0,16 -16,0 z M 400,80 l 16,0 0,16 -16,0 z M 416,80 l 16,0 0,16 -16,0 z M 432,80 l 16,0 0,16 -16,0 z M 448,80 l 16,0 0,16 -16,0 z M 480,80 l 16,0 0,16 -16,0 z M 576,80 l 16,0 0,16 -16,0 z M 0,96 l 16,0 0,16 -16,0 z M 16,96 l 16,0 0,16 -16,0 z M 32,96 l 16,0 0,16 -16,0 z M 48,96 l 16,0 0,16 -16,0 z M 64,96 l 16,0 0,16 -16,0 z M 80,96 l 16,0 0,16 -16,0 z M 96,96 l 16,0 0,16 -16,0 z M 128,96 l 16,0 0,16 -16,0 z M 160,96 l 16,0 0,16 -16,0 z M 192,96 l 16,0 0,16 -16,0 z M 224,96 l 16,0 0,16 -16,0 z M 256,96 l 16,0 0,16 -16,0 z M 288,96 l 16,0 0,16 -16,0 z M 320,96 l 16,0 0,16 -16,0 z M 352,96 l 16,0 0,16 -16,0 z M 384,96 l 16,0 0,16 -16,0 z M 416,96 l 16,0 0,16 -16,0 z M 448,96 l 16,0 0,16 -16,0 z M 480,96 l 16,0 0,16 -16,0 z M 496,96 l 16,0 0,16 -16,0 z M 512,96 l 16,0 0,16 -16,0 z M 528,96 l 16,0 0,16 -16,0 z M 544,96 l 16,0 0,16 -16,0 z M 560,96 l 16,0 0,16 -16,0 z M 576,96 l 16,0 0,16 -16,0 z M 192,112 l 16,0 0,16 -16,0 z M 224,112 l 16,0 0,16 -16,0 z M 256,112 l 16,0 0,16 -16,0 z M 272,112 l 16,0 0,16 -16,0 z M 304,112 l 16,0 0,16 -16,0 z M 336,112 l 16,0 0,16 -16,0 z M 352,112 l 16,0 0,16 -16,0 z M 368,112 l 16,0 0,16 -16,0 z M 384,112 l 16,0 0,16 -16,0 z M 432,112 l 16,0 0,16 -16,0 z M 448,112 l 16,0 0,16 -16,0 z M 0,128 l 16,0 0,16 -16,0 z M 16,128 l 16,0 0,16 -16,0 z M 32,128 l 16,0 0,16 -16,0 z M 48,128 l 16,0 0,16 -16,0 z M 64,128 l 16,0 0,16 -16,0 z M 96,128 l 16,0 0,16 -16,0 z M 112,128 l 16,0 0,16 -16,0 z M 128,128 l 16,0 0,16 -16,0 z M 144,128 l 16,0 0,16 -16,0 z M 160,128 l 16,0 0,16 -16,0 z M 192,128 l 16,0 0,16 -16,0 z M 224,128 l 16,0 0,16 -16,0 z M 288,128 l 16,0 0,16 -16,0 z M 304,128 l 16,0 0,16 -16,0 z M 336,128 l 16,0 0,16 -16,0 z M 464,128 l 16,0 0,16 -16,0 z M 496,128 l 16,0 0,16 -16,0 z M 528,128 l 16,0 0,16 -16,0 z M 560,128 l 16,0 0,16 -16,0 z M 0,144 l 16,0 0,16 -16,0 z M 16,144 l 16,0 0,16 -16,0 z M 32,144 l 16,0 0,16 -16,0 z M 48,144 l 16,0 0,16 -16,0 z M 64,144 l 16,0 0,16 -16,0 z M 144,144 l 16,0 0,16 -16,0 z M 208,144 l 16,0 0,16 -16,0 z M 224,144 l 16,0 0,16 -16,0 z M 240,144 l 16,0 0,16 -16,0 z M 256,144 l 16,0 0,16 -16,0 z M 272,144 l 16,0 0,16 -16,0 z M 288,144 l 16,0 0,16 -16,0 z M 336,144 l 16,0 0,16 -16,0 z M 368,144 l 16,0 0,16 -16,0 z M 416,144 l 16,0 0,16 -16,0 z M 496,144 l 16,0 0,16 -16,0 z M 528,144 l 16,0 0,16 -16,0 z M 544,144 l 16,0 0,16 -16,0 z M 560,144 l 16,0 0,16 -16,0 z M 0,160 l 16,0 0,16 -16,0 z M 16,160 l 16,0 0,16 -16,0 z M 48,160 l 16,0 0,16 -16,0 z M 64,160 l 16,0 0,16 -16,0 z M 80,160 l 16,0 0,16 -16,0 z M 96,160 l 16,0 0,16 -16,0 z M 128,160 l 16,0 0,16 -16,0 z M 144,160 l 16,0 0,16 -16,0 z M 176,160 l 16,0 0,16 -16,0 z M 192,160 l 16,0 0,16 -16,0 z M 256,160 l 16,0 0,16 -16,0 z M 272,160 l 16,0 0,16 -16,0 z M 288,160 l 16,0 0,16 -16,0 z M 304,160 l 16,0 0,16 -16,0 z M 336,160 l 16,0 0,16 -16,0 z M 384,160 l 16,0 0,16 -16,0 z M 432,160 l 16,0 0,16 -16,0 z M 448,160 l 16,0 0,16 -16,0 z M 480,160 l 16,0 0,16 -16,0 z M 528,160 l 16,0 0,16 -16,0 z M 544,160 l 16,0 0,16 -16,0 z M 576,160 l 16,0 0,16 -16,0 z M 16,176 l 16,0 0,16 -16,0 z M 32,176 l 16,0 0,16 -16,0 z M 48,176 l 16,0 0,16 -16,0 z M 112,176 l 16,0 0,16 -16,0 z M 128,176 l 16,0 0,16 -16,0 z M 160,176 l 16,0 0,16 -16,0 z M 176,176 l 16,0 0,16 -16,0 z M 208,176 l 16,0 0,16 -16,0 z M 224,176 l 16,0 0,16 -16,0 z M 272,176 l 16,0 0,16 -16,0 z M 336,176 l 16,0 0,16 -16,0 z M 448,176 l 16,0 0,16 -16,0 z M 464,176 l 16,0 0,16 -16,0 z M 480,176 l 16,0 0,16 -16,0 z M 528,176 l 16,0 0,16 -16,0 z M 560,176 l 16,0 0,16 -16,0 z M 16,192 l 16,0 0,16 -16,0 z M 32,192 l 16,0 0,16 -16,0 z M 96,192 l 16,0 0,16 -16,0 z M 112,192 l 16,0 0,16 -16,0 z M 128,192 l 16,0 0,16 -16,0 z M 176,192 l 16,0 0,16 -16,0 z M 224,192 l 16,0 0,16 -16,0 z M 304,192 l 16,0 0,16 -16,0 z M 320,192 l 16,0 0,16 -16,0 z M 336,192 l 16,0 0,16 -16,0 z M 464,192 l 16,0 0,16 -16,0 z M 480,192 l 16,0 0,16 -16,0 z M 496,192 l 16,0 0,16 -16,0 z M 512,192 l 16,0 0,16 -16,0 z M 528,192 l 16,0 0,16 -16,0 z M 544,192 l 16,0 0,16 -16,0 z M 576,192 l 16,0 0,16 -16,0 z M 16,208 l 16,0 0,16 -16,0 z M 48,208 l 16,0 0,16 -16,0 z M 80,208 l 16,0 0,16 -16,0 z M 112,208 l 16,0 0,16 -16,0 z M 128,208 l 16,0 0,16 -16,0 z M 144,208 l 16,0 0,16 -16,0 z M 160,208 l 16,0 0,16 -16,0 z M 192,208 l 16,0 0,16 -16,0 z M 208,208 l 16,0 0,16 -16,0 z M 240,208 l 16,0 0,16 -16,0 z M 256,208 l 16,0 0,16 -16,0 z M 272,208 l 16,0 0,16 -16,0 z M 320,208 l 16,0 0,16 -16,0 z M 336,208 l 16,0 0,16 -16,0 z M 368,208 l 16,0 0,16 -16,0 z M 384,208 l 16,0 0,16 -16,0 z M 416,208 l 16,0 0,16 -16,0 z M 448,208 l 16,0 0,16 -16,0 z M 496,208 l 16,0 0,16 -16,0 z M 544,208 l 16,0 0,16 -16,0 z M 560,208 l 16,0 0,16 -16,0 z M 0,224 l 16,0 0,16 -16,0 z M 16,224 l 16,0 0,16 -16,0 z M 32,224 l 16,0 0,16 -16,0 z M 48,224 l 16,0 0,16 -16,0 z M 64,224 l 16,0 0,16 -16,0 z M 96,224 l 16,0 0,16 -16,0 z M 160,224 l 16,0 0,16 -16,0 z M 208,224 l 16,0 0,16 -16,0 z M 224,224 l 16,0 0,16 -16,0 z M 256,224 l 16,0 0,16 -16,0 z M 288,224 l 16,0 0,16 -16,0 z M 320,224 l 16,0 0,16 -16,0 z M 336,224 l 16,0 0,16 -16,0 z M 384,224 l 16,0 0,16 -16,0 z M 400,224 l 16,0 0,16 -16,0 z M 432,224 l 16,0 0,16 -16,0 z M 480,224 l 16,0 0,16 -16,0 z M 496,224 l 16,0 0,16 -16,0 z M 512,224 l 16,0 0,16 -16,0 z M 544,224 l 16,0 0,16 -16,0 z M 560,224 l 16,0 0,16 -16,0 z M 576,224 l 16,0 0,16 -16,0 z M 16,240 l 16,0 0,16 -16,0 z M 48,240 l 16,0 0,16 -16,0 z M 64,240 l 16,0 0,16 -16,0 z M 80,240 l 16,0 0,16 -16,0 z M 160,240 l 16,0 0,16 -16,0 z M 192,240 l 16,0 0,16 -16,0 z M 224,240 l 16,0 0,16 -16,0 z M 288,240 l 16,0 0,16 -16,0 z M 320,240 l 16,0 0,16 -16,0 z M 368,240 l 16,0 0,16 -16,0 z M 400,240 l 16,0 0,16 -16,0 z M 416,240 l 16,0 0,16 -16,0 z M 464,240 l 16,0 0,16 -16,0 z M 528,240 l 16,0 0,16 -16,0 z M 576,240 l 16,0 0,16 -16,0 z M 0,256 l 16,0 0,16 -16,0 z M 80,256 l 16,0 0,16 -16,0 z M 96,256 l 16,0 0,16 -16,0 z M 128,256 l 16,0 0,16 -16,0 z M 144,256 l 16,0 0,16 -16,0 z M 160,256 l 16,0 0,16 -16,0 z M 192,256 l 16,0 0,16 -16,0 z M 224,256 l 16,0 0,16 -16,0 z M 256,256 l 16,0 0,16 -16,0 z M 304,256 l 16,0 0,16 -16,0 z M 320,256 l 16,0 0,16 -16,0 z M 416,256 l 16,0 0,16 -16,0 z M 448,256 l 16,0 0,16 -16,0 z M 464,256 l 16,0 0,16 -16,0 z M 480,256 l 16,0 0,16 -16,0 z M 496,256 l 16,0 0,16 -16,0 z M 512,256 l 16,0 0,16 -16,0 z M 528,256 l 16,0 0,16 -16,0 z M 544,256 l 16,0 0,16 -16,0 z M 576,256 l 16,0 0,16 -16,0 z M 0,272 l 16,0 0,16 -16,0 z M 32,272 l 16,0 0,16 -16,0 z M 48,272 l 16,0 0,16 -16,0 z M 64,272 l 16,0 0,16 -16,0 z M 80,272 l 16,0 0,16 -16,0 z M 112,272 l 16,0 0,16 -16,0 z M 128,272 l 16,0 0,16 -16,0 z M 144,272 l 16,0 0,16 -16,0 z M 160,272 l 16,0 0,16 -16,0 z M 208,272 l 16,0 0,16 -16,0 z M 224,272 l 16,0 0,16 -16,0 z M 240,272 l 16,0 0,16 -16,0 z M 272,272 l 16,0 0,16 -16,0 z M 368,272 l 16,0 0,16 -16,0 z M 384,272 l 16,0 0,16 -16,0 z M 416,272 l 16,0 0,16 -16,0 z M 448,272 l 16,0 0,16 -16,0 z M 496,272 l 16,0 0,16 -16,0 z M 544,272 l 16,0 0,16 -16,0 z M 560,272 l 16,0 0,16 -16,0 z M 16,288 l 16,0 0,16 -16,0 z M 32,288 l 16,0 0,16 -16,0 z M 64,288 l 16,0 0,16 -16,0 z M 96,288 l 16,0 0,16 -16,0 z M 112,288 l 16,0 0,16 -16,0 z M 144,288 l 16,0 0,16 -16,0 z M 160,288 l 16,0 0,16 -16,0 z M 176,288 l 16,0 0,16 -16,0 z M 192,288 l 16,0 0,16 -16,0 z M 208,288 l 16,0 0,16 -16,0 z M 240,288 l 16,0 0,16 -16,0 z M 256,288 l 16,0 0,16 -16,0 z M 336,288 l 16,0 0,16 -16,0 z M 432,288 l 16,0 0,16 -16,0 z M 464,288 l 16,0 0,16 -16,0 z M 480,288 l 16,0 0,16 -16,0 z M 496,288 l 16,0 0,16 -16,0 z M 544,288 l 16,0 0,16 -16,0 z M 560,288 l 16,0 0,16 -16,0 z M 576,288 l 16,0 0,16 -16,0 z M 64,304 l 16,0 0,16 -16,0 z M 80,304 l 16,0 0,16 -16,0 z M 112,304 l 16,0 0,16 -16,0 z M 128,304 l 16,0 0,16 -16,0 z M 176,304 l 16,0 0,16 -16,0 z M 208,304 l 16,0 0,16 -16,0 z M 240,304 l 16,0 0,16 -16,0 z M 256,304 l 16,0 0,16 -16,0 z M 288,304 l 16,0 0,16 -16,0 z M 304,304 l 16,0 0,16 -16,0 z M 336,304 l 16,0 0,16 -16,0 z M 352,304 l 16,0 0,16 -16,0 z M 368,304 l 16,0 0,16 -16,0 z M 400,304 l 16,0 0,16 -16,0 z M 448,304 l 16,0 0,16 -16,0 z M 464,304 l 16,0 0,16 -16,0 z M 480,304 l 16,0 0,16 -16,0 z M 496,304 l 16,0 0,16 -16,0 z M 512,304 l 16,0 0,16 -16,0 z M 576,304 l 16,0 0,16 -16,0 z M 16,320 l 16,0 0,16 -16,0 z M 64,320 l 16,0 0,16 -16,0 z M 96,320 l 16,0 0,16 -16,0 z M 128,320 l 16,0 0,16 -16,0 z M 176,320 l 16,0 0,16 -16,0 z M 224,320 l 16,0 0,16 -16,0 z M 256,320 l 16,0 0,16 -16,0 z M 288,320 l 16,0 0,16 -16,0 z M 304,320 l 16,0 0,16 -16,0 z M 320,320 l 16,0 0,16 -16,0 z M 336,320 l 16,0 0,16 -16,0 z M 384,320 l 16,0 0,16 -16,0 z M 480,320 l 16,0 0,16 -16,0 z M 512,320 l 16,0 0,16 -16,0 z M 528,320 l 16,0 0,16 -16,0 z M 544,320 l 16,0 0,16 -16,0 z M 560,320 l 16,0 0,16 -16,0 z M 576,320 l 16,0 0,16 -16,0 z M 32,336 l 16,0 0,16 -16,0 z M 48,336 l 16,0 0,16 -16,0 z M 112,336 l 16,0 0,16 -16,0 z M 144,336 l 16,0 0,16 -16,0 z M 160,336 l 16,0 0,16 -16,0 z M 192,336 l 16,0 0,16 -16,0 z M 208,336 l 16,0 0,16 -16,0 z M 224,336 l 16,0 0,16 -16,0 z M 240,336 l 16,0 0,16 -16,0 z M 256,336 l 16,0 0,16 -16,0 z M 272,336 l 16,0 0,16 -16,0 z M 368,336 l 16,0 0,16 -16,0 z M 416,336 l 16,0 0,16 -16,0 z M 448,336 l 16,0 0,16 -16,0 z M 560,336 l 16,0 0,16 -16,0 z M 48,352 l 16,0 0,16 -16,0 z M 80,352 l 16,0 0,16 -16,0 z M 96,352 l 16,0 0,16 -16,0 z M 128,352 l 16,0 0,16 -16,0 z M 144,352 l 16,0 0,16 -16,0 z M 208,352 l 16,0 0,16 -16,0 z M 320,352 l 16,0 0,16 -16,0 z M 416,352 l 16,0 0,16 -16,0 z M 432,352 l 16,0 0,16 -16,0 z M 448,352 l 16,0 0,16 -16,0 z M 464,352 l 16,0 0,16 -16,0 z M 496,352 l 16,0 0,16 -16,0 z M 512,352 l 16,0 0,16 -16,0 z M 544,352 l 16,0 0,16 -16,0 z M 560,352 l 16,0 0,16 -16,0 z M 576,352 l 16,0 0,16 -16,0 z M 16,368 l 16,0 0,16 -16,0 z M 32,368 l 16,0 0,16 -16,0 z M 80,368 l 16,0 0,16 -16,0 z M 112,368 l 16,0 0,16 -16,0 z M 144,368 l 16,0 0,16 -16,0 z M 192,368 l 16,0 0,16 -16,0 z M 224,368 l 16,0 0,16 -16,0 z M 240,368 l 16,0 0,16 -16,0 z M 288,368 l 16,0 0,16 -16,0 z M 320,368 l 16,0 0,16 -16,0 z M 336,368 l 16,0 0,16 -16,0 z M 368,368 l 16,0 0,16 -16,0 z M 384,368 l 16,0 0,16 -16,0 z M 432,368 l 16,0 0,16 -16,0 z M 464,368 l 16,0 0,16 -16,0 z M 480,368 l 16,0 0,16 -16,0 z M 496,368 l 16,0 0,16 -16,0 z M 576,368 l 16,0 0,16 -16,0 z M 16,384 l 16,0 0,16 -16,0 z M 32,384 l 16,0 0,16 -16,0 z M 48,384 l 16,0 0,16 -16,0 z M 64,384 l 16,0 0,16 -16,0 z M 80,384 l 16,0 0,16 -16,0 z M 96,384 l 16,0 0,16 -16,0 z M 112,384 l 16,0 0,16 -16,0 z M 128,384 l 16,0 0,16 -16,0 z M 144,384 l 16,0 0,16 -16,0 z M 160,384 l 16,0 0,16 -16,0 z M 192,384 l 16,0 0,16 -16,0 z M 224,384 l 16,0 0,16 -16,0 z M 256,384 l 16,0 0,16 -16,0 z M 288,384 l 16,0 0,16 -16,0 z M 304,384 l 16,0 0,16 -16,0 z M 320,384 l 16,0 0,16 -16,0 z M 336,384 l 16,0 0,16 -16,0 z M 384,384 l 16,0 0,16 -16,0 z M 432,384 l 16,0 0,16 -16,0 z M 464,384 l 16,0 0,16 -16,0 z M 480,384 l 16,0 0,16 -16,0 z M 512,384 l 16,0 0,16 -16,0 z M 528,384 l 16,0 0,16 -16,0 z M 544,384 l 16,0 0,16 -16,0 z M 560,384 l 16,0 0,16 -16,0 z M 576,384 l 16,0 0,16 -16,0 z M 0,400 l 16,0 0,16 -16,0 z M 16,400 l 16,0 0,16 -16,0 z M 32,400 l 16,0 0,16 -16,0 z M 64,400 l 16,0 0,16 -16,0 z M 80,400 l 16,0 0,16 -16,0 z M 128,400 l 16,0 0,16 -16,0 z M 160,400 l 16,0 0,16 -16,0 z M 208,400 l 16,0 0,16 -16,0 z M 224,400 l 16,0 0,16 -16,0 z M 240,400 l 16,0 0,16 -16,0 z M 256,400 l 16,0 0,16 -16,0 z M 272,400 l 16,0 0,16 -16,0 z M 288,400 l 16,0 0,16 -16,0 z M 320,400 l 16,0 0,16 -16,0 z M 352,400 l 16,0 0,16 -16,0 z M 368,400 l 16,0 0,16 -16,0 z M 400,400 l 16,0 0,16 -16,0 z M 448,400 l 16,0 0,16 -16,0 z M 496,400 l 16,0 0,16 -16,0 z M 544,400 l 16,0 0,16 -16,0 z M 560,400 l 16,0 0,16 -16,0 z M 0,416 l 16,0 0,16 -16,0 z M 48,416 l 16,0 0,16 -16,0 z M 64,416 l 16,0 0,16 -16,0 z M 96,416 l 16,0 0,16 -16,0 z M 112,416 l 16,0 0,16 -16,0 z M 160,416 l 16,0 0,16 -16,0 z M 176,416 l 16,0 0,16 -16,0 z M 192,416 l 16,0 0,16 -16,0 z M 208,416 l 16,0 0,16 -16,0 z M 240,416 l 16,0 0,16 -16,0 z M 272,416 l 16,0 0,16 -16,0 z M 288,416 l 16,0 0,16 -16,0 z M 336,416 l 16,0 0,16 -16,0 z M 400,416 l 16,0 0,16 -16,0 z M 432,416 l 16,0 0,16 -16,0 z M 464,416 l 16,0 0,16 -16,0 z M 480,416 l 16,0 0,16 -16,0 z M 512,416 l 16,0 0,16 -16,0 z M 528,416 l 16,0 0,16 -16,0 z M 560,416 l 16,0 0,16 -16,0 z M 576,416 l 16,0 0,16 -16,0 z M 0,432 l 16,0 0,16 -16,0 z M 48,432 l 16,0 0,16 -16,0 z M 80,432 l 16,0 0,16 -16,0 z M 112,432 l 16,0 0,16 -16,0 z M 128,432 l 16,0 0,16 -16,0 z M 144,432 l 16,0 0,16 -16,0 z M 160,432 l 16,0 0,16 -16,0 z M 176,432 l 16,0 0,16 -16,0 z M 208,432 l 16,0 0,16 -16,0 z M 224,432 l 16,0 0,16 -16,0 z M 240,432 l 16,0 0,16 -16,0 z M 272,432 l 16,0 0,16 -16,0 z M 304,432 l 16,0 0,16 -16,0 z M 336,432 l 16,0 0,16 -16,0 z M 368,432 l 16,0 0,16 -16,0 z M 464,432 l 16,0 0,16 -16,0 z M 496,432 l 16,0 0,16 -16,0 z M 512,432 l 16,0 0,16 -16,0 z M 576,432 l 16,0 0,16 -16,0 z M 0,448 l 16,0 0,16 -16,0 z M 64,448 l 16,0 0,16 -16,0 z M 96,448 l 16,0 0,16 -16,0 z M 128,448 l 16,0 0,16 -16,0 z M 176,448 l 16,0 0,16 -16,0 z M 192,448 l 16,0 0,16 -16,0 z M 224,448 l 16,0 0,16 -16,0 z M 256,448 l 16,0 0,16 -16,0 z M 304,448 l 16,0 0,16 -16,0 z M 320,448 l 16,0 0,16 -16,0 z M 336,448 l 16,0 0,16 -16,0 z M 352,448 l 16,0 0,16 -16,0 z M 384,448 l 16,0 0,16 -16,0 z M 400,448 l 16,0 0,16 -16,0 z M 416,448 l 16,0 0,16 -16,0 z M 432,448 l 16,0 0,16 -16,0 z M 448,448 l 16,0 0,16 -16,0 z M 464,448 l 16,0 0,16 -16,0 z M 480,448 l 16,0 0,16 -16,0 z M 496,448 l 16,0 0,16 -16,0 z M 512,448 l 16,0 0,16 -16,0 z M 528,448 l 16,0 0,16 -16,0 z M 544,448 l 16,0 0,16 -16,0 z M 128,464 l 16,0 0,16 -16,0 z M 192,464 l 16,0 0,16 -16,0 z M 208,464 l 16,0 0,16 -16,0 z M 224,464 l 16,0 0,16 -16,0 z M 240,464 l 16,0 0,16 -16,0 z M 272,464 l 16,0 0,16 -16,0 z M 320,464 l 16,0 0,16 -16,0 z M 352,464 l 16,0 0,16 -16,0 z M 368,464 l 16,0 0,16 -16,0 z M 416,464 l 16,0 0,16 -16,0 z M 432,464 l 16,0 0,16 -16,0 z M 448,464 l 16,0 0,16 -16,0 z M 512,464 l 16,0 0,16 -16,0 z M 544,464 l 16,0 0,16 -16,0 z M 0,480 l 16,0 0,16 -16,0 z M 16,480 l 16,0 0,16 -16,0 z M 32,480 l 16,0 0,16 -16,0 z M 48,480 l 16,0 0,16 -16,0 z M 64,480 l 16,0 0,16 -16,0 z M 80,480 l 16,0 0,16 -16,0 z M 96,480 l 16,0 0,16 -16,0 z M 128,480 l 16,0 0,16 -16,0 z M 144,480 l 16,0 0,16 -16,0 z M 192,480 l 16,0 0,16 -16,0 z M 224,480 l 16,0 0,16 -16,0 z M 240,480 l 16,0 0,16 -16,0 z M 256,480 l 16,0 0,16 -16,0 z M 288,480 l 16,0 0,16 -16,0 z M 304,480 l 16,0 0,16 -16,0 z M 320,480 l 16,0 0,16 -16,0 z M 336,480 l 16,0 0,16 -16,0 z M 352,480 l 16,0 0,16 -16,0 z M 400,480 l 16,0 0,16 -16,0 z M 448,480 l 16,0 0,16 -16,0 z M 480,480 l 16,0 0,16 -16,0 z M 512,480 l 16,0 0,16 -16,0 z M 544,480 l 16,0 0,16 -16,0 z M 560,480 l 16,0 0,16 -16,0 z M 576,480 l 16,0 0,16 -16,0 z M 0,496 l 16,0 0,16 -16,0 z M 96,496 l 16,0 0,16 -16,0 z M 144,496 l 16,0 0,16 -16,0 z M 160,496 l 16,0 0,16 -16,0 z M 192,496 l 16,0 0,16 -16,0 z M 208,496 l 16,0 0,16 -16,0 z M 240,496 l 16,0 0,16 -16,0 z M 256,496 l 16,0 0,16 -16,0 z M 272,496 l 16,0 0,16 -16,0 z M 288,496 l 16,0 0,16 -16,0 z M 336,496 l 16,0 0,16 -16,0 z M 368,496 l 16,0 0,16 -16,0 z M 448,496 l 16,0 0,16 -16,0 z M 512,496 l 16,0 0,16 -16,0 z M 0,512 l 16,0 0,16 -16,0 z M 32,512 l 16,0 0,16 -16,0 z M 48,512 l 16,0 0,16 -16,0 z M 64,512 l 16,0 0,16 -16,0 z M 96,512 l 16,0 0,16 -16,0 z M 128,512 l 16,0 0,16 -16,0 z M 144,512 l 16,0 0,16 -16,0 z M 160,512 l 16,0 0,16 -16,0 z M 192,512 l 16,0 0,16 -16,0 z M 256,512 l 16,0 0,16 -16,0 z M 304,512 l 16,0 0,16 -16,0 z M 320,512 l 16,0 0,16 -16,0 z M 336,512 l 16,0 0,16 -16,0 z M 400,512 l 16,0 0,16 -16,0 z M 416,512 l 16,0 0,16 -16,0 z M 432,512 l 16,0 0,16 -16,0 z M 448,512 l 16,0 0,16 -16,0 z M 464,512 l 16,0 0,16 -16,0 z M 480,512 l 16,0 0,16 -16,0 z M 496,512 l 16,0 0,16 -16,0 z M 512,512 l 16,0 0,16 -16,0 z M 544,512 l 16,0 0,16 -16,0 z M 576,512 l 16,0 0,16 -16,0 z M 0,528 l 16,0 0,16 -16,0 z M 32,528 l 16,0 0,16 -16,0 z M 48,528 l 16,0 0,16 -16,0 z M 64,528 l 16,0 0,16 -16,0 z M 96,528 l 16,0 0,16 -16,0 z M 128,528 l 16,0 0,16 -16,0 z M 192,528 l 16,0 0,16 -16,0 z M 208,528 l 16,0 0,16 -16,0 z M 224,528 l 16,0 0,16 -16,0 z M 240,528 l 16,0 0,16 -16,0 z M 272,528 l 16,0 0,16 -16,0 z M 352,528 l 16,0 0,16 -16,0 z M 368,528 l 16,0 0,16 -16,0 z M 384,528 l 16,0 0,16 -16,0 z M 416,528 l 16,0 0,16 -16,0 z M 432,528 l 16,0 0,16 -16,0 z M 448,528 l 16,0 0,16 -16,0 z M 464,528 l 16,0 0,16 -16,0 z M 480,528 l 16,0 0,16 -16,0 z M 512,528 l 16,0 0,16 -16,0 z M 0,544 l 16,0 0,16 -16,0 z M 32,544 l 16,0 0,16 -16,0 z M 48,544 l 16,0 0,16 -16,0 z M 64,544 l 16,0 0,16 -16,0 z M 96,544 l 16,0 0,16 -16,0 z M 128,544 l 16,0 0,16 -16,0 z M 176,544 l 16,0 0,16 -16,0 z M 256,544 l 16,0 0,16 -16,0 z M 272,544 l 16,0 0,16 -16,0 z M 288,544 l 16,0 0,16 -16,0 z M 304,544 l 16,0 0,16 -16,0 z M 320,544 l 16,0 0,16 -16,0 z M 336,544 l 16,0 0,16 -16,0 z M 352,544 l 16,0 0,16 -16,0 z M 384,544 l 16,0 0,16 -16,0 z M 400,544 l 16,0 0,16 -16,0 z M 416,544 l 16,0 0,16 -16,0 z M 432,544 l 16,0 0,16 -16,0 z M 496,544 l 16,0 0,16 -16,0 z M 544,544 l 16,0 0,16 -16,0 z M 576,544 l 16,0 0,16 -16,0 z M 0,560 l 16,0 0,16 -16,0 z M 96,560 l 16,0 0,16 -16,0 z M 128,560 l 16,0 0,16 -16,0 z M 160,560 l 16,0 0,16 -16,0 z M 176,560 l 16,0 0,16 -16,0 z M 192,560 l 16,0 0,16 -16,0 z M 272,560 l 16,0 0,16 -16,0 z M 304,560 l 16,0 0,16 -16,0 z M 336,560 l 16,0 0,16 -16,0 z M 384,560 l 16,0 0,16 -16,0 z M 416,560 l 16,0 0,16 -16,0 z M 448,560 l 16,0 0,16 -16,0 z M 480,560 l 16,0 0,16 -16,0 z M 496,560 l 16,0 0,16 -16,0 z M 576,560 l 16,0 0,16 -16,0 z M 0,576 l 16,0 0,16 -16,0 z M 16,576 l 16,0 0,16 -16,0 z M 32,576 l 16,0 0,16 -16,0 z M 48,576 l 16,0 0,16 -16,0 z M 64,576 l 16,0 0,16 -16,0 z M 80,576 l 16,0 0,16 -16,0 z M 96,576 l 16,0 0,16 -16,0 z M 128,576 l 16,0 0,16 -16,0 z M 176,576 l 16,0 0,16 -16,0 z M 224,576 l 16,0 0,16 -16,0 z M 256,576 l 16,0 0,16 -16,0 z M 304,576 l 16,0 0,16 -16,0 z M 336,576 l 16,0 0,16 -16,0 z M 368,576 l 16,0 0,16 -16,0 z M 400,576 l 16,0 0,16 -16,0 z M 416,576 l 16,0 0,16 -16,0 z M 464,576 l 16,0 0,16 -16,0 z M 480,576 l 16,0 0,16 -16,0 z M 512,576 l 16,0 0,16 -16,0 z M 528,576 l 16,0 0,16 -16,0 z M 544,576 l 16,0 0,16 -16,0 z M 560,576 l 16,0 0,16 -16,0 z M 576,576 l 16,0 0,16 -16,0 z " />
	</g>
</svg>
